<svg preserveAspectRatio="none" width="100%" height="100%" overflow="visible" style="display: block;" viewBox="0 0 20 20" fill="none" xmlns="http://www.w3.org/2000/svg">
<g id="Icon">
<path id="Vector" d="M13.3316 10.7092L10.4872 17.1092C9.92138 17.1092 9.37876 16.8844 8.97868 16.4844C8.5786 16.0843 8.35384 15.5417 8.35384 14.9759V12.1314H4.32895C4.1228 12.1338 3.9186 12.0912 3.7305 12.0068C3.54241 11.9224 3.37491 11.7981 3.23963 11.6425C3.10435 11.4869 3.0045 11.3038 2.94702 11.1058C2.88954 10.9078 2.87579 10.6997 2.90673 10.4959L3.88806 4.09586C3.93949 3.75673 4.11176 3.44761 4.37311 3.22546C4.63446 3.00331 4.9673 2.8831 5.31029 2.88698H13.3316M13.3316 10.7092V2.88698M13.3316 10.7092H15.2303C15.6327 10.7163 16.0238 10.5754 16.3292 10.3132C16.6347 10.0511 16.8332 9.68587 16.8872 9.28698V4.3092C16.8332 3.91031 16.6347 3.54511 16.3292 3.28294C16.0238 3.02076 15.6327 2.87986 15.2303 2.88698H13.3316" stroke="var(--stroke-0, #48741C)" stroke-width="0.888889" stroke-linecap="round" stroke-linejoin="round"/>
</g>
</svg>
