<svg preserveAspectRatio="none" width="100%" height="100%" overflow="visible" style="display: block;" viewBox="0 0 116.782 27" fill="none" xmlns="http://www.w3.org/2000/svg">
<g id="logo">
<g id="Union">
<path fill-rule="evenodd" clip-rule="evenodd" d="M15.786 12.3947C15.786 12.3947 18.7508 10.7967 18.7508 6.59148C18.7508 1.54081 15.0432 0 11.4749 0H0V26.1687H11.3418C16.7793 26.1687 19.4883 23.1735 19.4883 18.6489C19.4883 13.1992 15.786 12.3947 15.786 12.3947ZM11.2669 19.2009C10.7344 20.1617 9.54226 20.3659 8.33347 20.3659H7.46687V15.1273H9.09089C10.0362 15.1273 10.8578 15.3813 11.3104 16.1197C11.6822 16.7257 11.7711 18.2901 11.2669 19.2009ZM7.46687 5.26413H9.31211C10.4162 5.26413 11.3818 6.10192 11.3818 7.43653C11.3818 9.14904 10.1885 9.69011 8.4317 9.69011H7.46687V5.26413Z" fill="var(--fill-0, #421540)"/>
<path d="M79.4588 26.1687H86.597V3.13042H79.4588V26.1687Z" fill="var(--fill-0, #421540)"/>
<path d="M95.9157 26.1687H88.801V3.13042H95.9157V26.1687Z" fill="var(--fill-0, #421540)"/>
<path fill-rule="evenodd" clip-rule="evenodd" d="M113.667 15.4699L105.475 22.3792C106.742 23.3286 108.851 22.7997 111.105 20.4463L113.651 23.3842C111.579 25.855 109.153 27 105.839 27C101.06 27 97.2429 23.4573 97.2429 19.0877C97.2429 14.7385 101.096 11.087 105.882 11.087C109.588 11.087 112.278 12.8332 113.667 15.4699ZM107.724 16.3905C107.724 16.3905 105.75 14.5234 103.598 16.3905C101.685 18.0365 103.21 20.1569 103.21 20.1569L107.724 16.3905Z" fill="var(--fill-0, #421540)"/>
<path d="M76.9584 7.26417C76.9584 9.05461 75.515 10.487 73.684 10.487C71.9345 10.487 70.4972 9.05461 70.4972 7.26417C70.4972 5.47372 71.9345 4.02627 73.684 4.02627C75.515 4.02627 76.9584 5.47372 76.9584 7.26417Z" fill="var(--fill-0, #421540)"/>
<path d="M70.1836 26.1687H77.2812V11.9775H70.1836V26.1687Z" fill="var(--fill-0, #421540)"/>
<path d="M58.7775 11.9261L60.9832 18.1633L63.225 11.9761H69.0818L63.3865 26.1685H57.0784L51.5187 11.9261H58.7775Z" fill="var(--fill-0, #421540)"/>
<path fill-rule="evenodd" clip-rule="evenodd" d="M43.5983 11.0866C38.8566 11.0866 34.9603 14.7381 34.9603 19.0874C34.9603 23.4553 38.8172 26.9985 43.5837 26.9985C46.932 26.9985 49.3386 25.855 51.4039 23.3811L48.8978 20.4464C46.5895 22.7982 44.4962 23.3283 43.2399 22.3793L51.4636 15.4696C50.0417 12.8332 47.3619 11.0866 43.5983 11.0866ZM40.9597 20.1561C40.9597 20.1561 39.4351 18.0336 41.3798 16.3901C43.5023 14.5234 45.4673 16.3901 45.4673 16.3901L40.9597 20.1561Z" fill="var(--fill-0, #421540)"/>
<path d="M34.396 15.3584C34.396 17.1493 32.953 18.5817 31.1207 18.5817C29.752 18.5817 28.5749 17.7045 28.1276 16.4653C28.1276 16.4653 28.0626 16.5607 28.035 16.6394C28.0152 16.6865 28.0152 16.7819 28.0152 16.7819V26.1684H20.909V11.9452H28.0152V13.8196C28.0152 13.9142 28.035 13.9767 28.1004 14.0936C28.1532 14.1866 28.1637 14.1484 28.1637 14.1484L28.1698 14.1395C28.6455 12.955 29.7934 12.1213 31.1207 12.1213C32.953 12.1213 34.396 13.5688 34.396 15.3584Z" fill="var(--fill-0, #421540)"/>
<path fill-rule="evenodd" clip-rule="evenodd" d="M114.788 12.4618H115.049V11.7539H115.233C115.445 11.7539 115.548 11.8318 115.588 12.0413C115.62 12.2589 115.66 12.409 115.699 12.4618H115.977C115.947 12.409 115.91 12.3108 115.87 12.0547C115.838 11.8116 115.741 11.6813 115.593 11.6549V11.6415C115.772 11.5899 115.916 11.4588 115.916 11.2425C115.916 11.0842 115.863 10.9721 115.765 10.8999C115.667 10.8293 115.502 10.7761 115.252 10.7761C115.062 10.7761 114.931 10.7952 114.797 10.8147L114.788 10.8159V12.4618ZM115.24 11.5509H115.049V10.9928C115.096 10.9859 115.155 10.979 115.24 10.979C115.536 10.979 115.64 11.1235 115.64 11.2676C115.64 11.4714 115.457 11.5509 115.24 11.5509Z" fill="var(--fill-0, #421540)"/>
<path fill-rule="evenodd" clip-rule="evenodd" d="M116.782 11.6021C116.782 10.7822 116.139 10.1271 115.332 10.1271H115.325C114.517 10.1271 113.862 10.7822 113.862 11.6021C113.862 12.4347 114.517 13.0841 115.325 13.0841C116.139 13.0841 116.782 12.4347 116.782 11.6021ZM114.145 11.6023C114.145 10.9139 114.678 10.3561 115.326 10.3561H115.333C115.989 10.3561 116.513 10.9139 116.513 11.6092C116.513 12.3053 115.989 12.8618 115.333 12.8553C114.678 12.8553 114.145 12.3053 114.145 11.6023Z" fill="var(--fill-0, #421540)"/>
</g>
</g>
</svg>
